<mxfile host="app.diagrams.net" modified="2022-12-14T09:55:00.212Z" agent="5.0 (Windows NT 10.0; Win64; x64) AppleWebKit/537.36 (KHTML, like Gecko) Chrome/107.0.0.0 Safari/537.36" etag="9FZ1OCRxH0fhfP2c2YDB" version="20.3.5" type="github">
  <diagram id="QP86d_SbM729CwSrI5CI" name="第 1 页">
    <mxGraphModel dx="3262" dy="1114" grid="1" gridSize="10" guides="1" tooltips="1" connect="1" arrows="1" fold="1" page="1" pageScale="1" pageWidth="1200" pageHeight="1920" math="0" shadow="0">
      <root>
        <mxCell id="0" />
        <mxCell id="1" parent="0" />
        <mxCell id="wmuMwJECuC7DbsyBC3H5-5" value="" style="html=1;shadow=0;dashed=0;align=center;verticalAlign=middle;shape=mxgraph.arrows2.arrow;dy=0.6;dx=40;notch=0;" vertex="1" parent="1">
          <mxGeometry x="-800" y="689" width="100" height="51" as="geometry" />
        </mxCell>
        <mxCell id="wmuMwJECuC7DbsyBC3H5-6" value="权重确认" style="rounded=0;whiteSpace=wrap;html=1;" vertex="1" parent="1">
          <mxGeometry x="-440" y="1110" width="120" height="60" as="geometry" />
        </mxCell>
        <mxCell id="wmuMwJECuC7DbsyBC3H5-7" value="指数确认" style="rounded=0;whiteSpace=wrap;html=1;" vertex="1" parent="1">
          <mxGeometry x="-280" y="1110" width="120" height="60" as="geometry" />
        </mxCell>
        <mxCell id="wmuMwJECuC7DbsyBC3H5-8" value="评分算法计算得分" style="rounded=0;whiteSpace=wrap;html=1;" vertex="1" parent="1">
          <mxGeometry x="-440" y="1210" width="120" height="60" as="geometry" />
        </mxCell>
        <mxCell id="wmuMwJECuC7DbsyBC3H5-9" value="评分更新" style="rounded=0;whiteSpace=wrap;html=1;" vertex="1" parent="1">
          <mxGeometry x="-440" y="1310" width="120" height="60" as="geometry" />
        </mxCell>
        <mxCell id="wmuMwJECuC7DbsyBC3H5-10" value="评分日志更新" style="rounded=0;whiteSpace=wrap;html=1;" vertex="1" parent="1">
          <mxGeometry x="-280" y="1310" width="120" height="60" as="geometry" />
        </mxCell>
        <mxCell id="wmuMwJECuC7DbsyBC3H5-11" value="系统评分处理器" style="rounded=0;whiteSpace=wrap;html=1;verticalAlign=bottom;labelPosition=center;verticalLabelPosition=top;align=center;fillColor=#CCFFFF;fontSize=20;" vertex="1" parent="1">
          <mxGeometry x="-1110" y="670" width="1230" height="1210" as="geometry" />
        </mxCell>
        <mxCell id="wmuMwJECuC7DbsyBC3H5-12" value="评分计算" style="rounded=0;whiteSpace=wrap;html=1;verticalAlign=top;fillColor=#CCE5FF;fontSize=18;" vertex="1" parent="1">
          <mxGeometry x="-1080" y="720" width="1160" height="1100" as="geometry" />
        </mxCell>
        <mxCell id="wmuMwJECuC7DbsyBC3H5-1" value="健康模型" style="rounded=0;whiteSpace=wrap;html=1;verticalAlign=top;" vertex="1" parent="1">
          <mxGeometry x="-1020" y="770" width="290" height="230" as="geometry" />
        </mxCell>
        <mxCell id="wmuMwJECuC7DbsyBC3H5-2" value="权重" style="rounded=0;whiteSpace=wrap;html=1;" vertex="1" parent="1">
          <mxGeometry x="-980" y="810" width="190" height="40" as="geometry" />
        </mxCell>
        <mxCell id="wmuMwJECuC7DbsyBC3H5-3" value="指数" style="rounded=0;whiteSpace=wrap;html=1;" vertex="1" parent="1">
          <mxGeometry x="-980" y="880" width="190" height="40" as="geometry" />
        </mxCell>
        <mxCell id="wmuMwJECuC7DbsyBC3H5-4" value="计算频率" style="rounded=0;whiteSpace=wrap;html=1;" vertex="1" parent="1">
          <mxGeometry x="-980" y="940" width="190" height="40" as="geometry" />
        </mxCell>
        <mxCell id="wmuMwJECuC7DbsyBC3H5-13" value="" style="rounded=0;whiteSpace=wrap;html=1;" vertex="1" parent="1">
          <mxGeometry x="-1020" y="1060" width="1030" height="200" as="geometry" />
        </mxCell>
        <mxCell id="wmuMwJECuC7DbsyBC3H5-17" value="初始健康评分详情" style="rounded=0;whiteSpace=wrap;html=1;verticalAlign=top;" vertex="1" parent="1">
          <mxGeometry x="-680" y="770" width="660" height="230" as="geometry" />
        </mxCell>
        <mxCell id="wmuMwJECuC7DbsyBC3H5-14" value="严重告警健康评分信息&lt;br&gt;（sDetail）" style="rounded=0;whiteSpace=wrap;html=1;fillColor=#FF6666;" vertex="1" parent="1">
          <mxGeometry x="-630" y="850" width="150" height="80" as="geometry" />
        </mxCell>
        <mxCell id="wmuMwJECuC7DbsyBC3H5-15" value="次严重告警健康评分信息&lt;br&gt;（subDetail）" style="rounded=0;whiteSpace=wrap;html=1;fillColor=#FF6666;" vertex="1" parent="1">
          <mxGeometry x="-420" y="850" width="150" height="80" as="geometry" />
        </mxCell>
        <mxCell id="wmuMwJECuC7DbsyBC3H5-16" value="预警告警健康评分信息&lt;br&gt;（gDetail）" style="rounded=0;whiteSpace=wrap;html=1;fillColor=#FF6666;" vertex="1" parent="1">
          <mxGeometry x="-200" y="850" width="150" height="80" as="geometry" />
        </mxCell>
      </root>
    </mxGraphModel>
  </diagram>
</mxfile>
